<?xml version="1.0" standalone="no"?>
<!DOCTYPE svg PUBLIC "-//W3C//DTD SVG 20010904//EN"
 "http://www.w3.org/TR/2001/REC-SVG-20010904/DTD/svg10.dtd">
<svg version="1.0" xmlns="http://www.w3.org/2000/svg"
 width="150.000000pt" height="150.000000pt" viewBox="0 0 150.000000 150.000000"
 preserveAspectRatio="xMidYMid meet">
<metadata>
Created by potrace 1.14, written by Peter Selinger 2001-2017
</metadata>
<g transform="translate(0.000000,150.000000) scale(0.100000,-0.100000)"
fill="#000000" stroke="none">
<path d="M0 750 l0 -750 750 0 750 0 0 750 0 750 -750 0 -750 0 0 -750z m605
373 c76 -41 115 -105 115 -190 0 -156 -101 -243 -282 -243 l-68 0 0 -135 0
-135 -85 0 -85 0 0 366 0 366 183 -4 c163 -3 186 -5 222 -25z m575 -325 c78
-194 145 -359 147 -365 4 -10 -17 -13 -85 -13 l-90 0 -27 75 -28 75 -138 0
-138 0 -19 -52 c-11 -29 -23 -63 -26 -75 -7 -22 -13 -23 -97 -23 -49 0 -89 2
-89 5 0 2 60 154 134 338 74 183 139 345 145 360 10 26 13 27 89 27 l79 0 143
-352z"/>
<path d="M370 920 l0 -103 52 7 c96 13 124 41 116 116 -4 46 -43 72 -113 78
l-55 4 0 -102z"/>
<path d="M921 827 c-19 -51 -36 -98 -39 -104 -3 -10 16 -13 77 -13 45 0 81 2
81 4 0 9 -72 192 -78 198 -4 4 -22 -35 -41 -85z"/>
</g>
</svg>
